<?xml version="1.0" encoding="UTF-8"?>
<svg id="Layer_2" data-name="Layer 2" xmlns="http://www.w3.org/2000/svg" viewBox="0 0 765.74 657.63">
  <defs>
    <style>
      .cls-1 {
        fill: #ed5236;
      }

      .cls-2 {
        fill: #d66f28;
      }

      .cls-3 {
        fill: #0b3147;
      }

      .cls-4 {
        fill: #295370;
      }

      .cls-5 {
        fill: #fff;
      }

      .cls-6 {
        fill: #f6881f;
      }

      .cls-7 {
        fill: #c03c27;
      }
    </style>
  </defs>
  <g id="Layer_2-2" data-name="Layer 2">
    <g>
      <g>
        <polygon class="cls-3" points="74.19 567.83 51.75 567.83 19.89 606.87 18.72 606.87 18.72 567.83 0 567.83 0 656.37 18.72 656.37 18.72 631.21 27.93 619.97 52.18 656.37 74.58 656.37 41.33 607.47 74.19 567.83"/>
        <path class="cls-3" d="M135.82,621.61c4.8-2.25,8.47-5.48,11-9.71,2.54-4.22,3.8-9.27,3.8-15.15s-1.25-10.94-3.74-15.28c-2.49-4.34-6.11-7.7-10.85-10.07s-10.46-3.57-17.14-3.57h-34.93v88.54h18.72v-31.39h13.67l16.77,31.39h20.67l-18.79-34.41c.27-.12.56-.23.83-.35ZM102.68,583.13h12.62c3.6,0,6.59.53,8.97,1.58s4.15,2.59,5.32,4.6c1.17,2.02,1.75,4.5,1.75,7.44s-.58,5.35-1.75,7.31c-1.17,1.96-2.93,3.43-5.3,4.41-2.36.98-5.33,1.47-8.91,1.47h-12.71v-26.8Z"/>
        <rect class="cls-3" x="163.85" y="567.83" width="18.72" height="88.54"/>
        <path class="cls-3" d="M257.67,613.83c-2.36-2.1-5.16-3.88-8.39-5.32s-6.77-2.59-10.64-3.46l-7.96-1.9c-1.93-.43-3.75-.96-5.45-1.58-1.7-.62-3.2-1.35-4.5-2.2-1.3-.85-2.31-1.87-3.05-3.05-.73-1.18-1.07-2.57-1.02-4.15,0-1.9.55-3.6,1.66-5.1,1.11-1.5,2.72-2.67,4.82-3.52,2.1-.85,4.68-1.28,7.74-1.28,4.5,0,8.06.97,10.68,2.9,2.62,1.93,4.11,4.64,4.45,8.13h17.94c-.09-5.28-1.5-9.92-4.24-13.92-2.74-4.01-6.56-7.13-11.48-9.38-4.91-2.25-10.66-3.37-17.23-3.37s-12.22,1.12-17.29,3.37c-5.07,2.25-9.06,5.38-11.95,9.38-2.9,4.01-4.33,8.69-4.3,14.05-.03,6.54,2.12,11.75,6.44,15.61,4.32,3.86,10.22,6.7,17.68,8.52l9.64,2.42c3.23.78,5.96,1.64,8.19,2.59,2.23.95,3.93,2.1,5.1,3.46s1.75,3.03,1.75,5.01c0,2.13-.65,4.02-1.95,5.66-1.3,1.64-3.12,2.93-5.47,3.85-2.35.92-5.11,1.38-8.28,1.38s-6.12-.5-8.67-1.49-4.58-2.48-6.1-4.45c-1.51-1.97-2.37-4.45-2.57-7.41h-18.11c.14,6.37,1.69,11.71,4.65,16.02,2.95,4.31,7.08,7.56,12.36,9.75,5.29,2.19,11.51,3.29,18.66,3.29s13.37-1.09,18.48-3.26c5.12-2.18,9.04-5.25,11.76-9.21s4.1-8.65,4.13-14.07c-.03-3.69-.7-6.96-2.01-9.81-1.31-2.85-3.15-5.33-5.51-7.44Z"/>
        <polygon class="cls-3" points="296.45 619.8 334.32 619.8 334.32 604.36 296.45 604.36 296.45 583.26 337.39 583.26 337.39 567.83 277.73 567.83 277.73 656.37 337.56 656.37 337.56 640.94 296.45 640.94 296.45 619.8"/>
        <polygon class="cls-3" points="352.3 656.37 371.02 656.37 371.02 619.8 407.04 619.8 407.04 604.36 371.02 604.36 371.02 583.26 410.93 583.26 410.93 567.83 352.3 567.83 352.3 656.37"/>
        <rect class="cls-3" x="423.51" y="567.83" width="18.72" height="88.54"/>
        <polygon class="cls-3" points="531.85 567.83 509.41 567.83 477.55 606.87 476.38 606.87 476.38 567.83 457.66 567.83 457.66 656.37 476.38 656.37 476.38 631.21 485.59 619.97 509.85 656.37 532.24 656.37 498.99 607.47 531.85 567.83"/>
        <path class="cls-3" d="M601.28,613.83c-2.36-2.1-5.16-3.88-8.39-5.32-3.23-1.44-6.77-2.59-10.64-3.46l-7.96-1.9c-1.93-.43-3.75-.96-5.45-1.58-1.7-.62-3.2-1.35-4.5-2.2s-2.31-1.87-3.05-3.05c-.74-1.18-1.07-2.57-1.02-4.15,0-1.9.55-3.6,1.67-5.1,1.11-1.5,2.72-2.67,4.82-3.52,2.1-.85,4.68-1.28,7.74-1.28,4.5,0,8.05.97,10.68,2.9s4.11,4.64,4.45,8.13h17.94c-.09-5.28-1.5-9.92-4.24-13.92-2.74-4.01-6.56-7.13-11.48-9.38-4.91-2.25-10.66-3.37-17.23-3.37s-12.22,1.12-17.29,3.37c-5.07,2.25-9.06,5.38-11.95,9.38-2.9,4.01-4.33,8.69-4.3,14.05-.03,6.54,2.12,11.75,6.44,15.61,4.32,3.86,10.22,6.7,17.68,8.52l9.64,2.42c3.23.78,5.96,1.64,8.19,2.59,2.23.95,3.93,2.1,5.1,3.46s1.75,3.03,1.75,5.01c0,2.13-.65,4.02-1.95,5.66-1.3,1.64-3.12,2.93-5.47,3.85-2.35.92-5.11,1.38-8.28,1.38s-6.12-.5-8.67-1.49-4.58-2.48-6.1-4.45c-1.51-1.97-2.37-4.45-2.57-7.41h-18.12c.14,6.37,1.69,11.71,4.65,16.02,2.95,4.31,7.08,7.56,12.37,9.75,5.29,2.19,11.51,3.29,18.66,3.29s13.37-1.09,18.48-3.26c5.12-2.18,9.04-5.25,11.76-9.21,2.72-3.96,4.1-8.65,4.13-14.07-.03-3.69-.7-6.96-2.01-9.81-1.31-2.85-3.15-5.33-5.51-7.44Z"/>
        <polygon class="cls-3" points="640.06 619.8 677.94 619.8 677.94 604.36 640.06 604.36 640.06 583.26 681 583.26 681 567.83 621.34 567.83 621.34 656.37 681.18 656.37 681.18 640.94 640.06 640.94 640.06 619.8"/>
        <path class="cls-3" d="M745.08,656.37h20.67l-18.79-34.41c.27-.12.56-.23.83-.35,4.8-2.25,8.47-5.48,11-9.71,2.54-4.22,3.8-9.27,3.8-15.15s-1.25-10.94-3.74-15.28c-2.49-4.34-6.11-7.7-10.85-10.07-4.74-2.38-10.46-3.57-17.14-3.57h-34.93v88.54h18.72v-31.39h13.66l16.77,31.39ZM714.64,583.13h12.62c3.6,0,6.59.53,8.97,1.58s4.15,2.59,5.32,4.6c1.17,2.02,1.75,4.5,1.75,7.44s-.58,5.35-1.75,7.31c-1.17,1.96-2.93,3.43-5.3,4.41s-5.33,1.47-8.91,1.47h-12.71v-26.8Z"/>
      </g>
      <g>
        <path class="cls-3" d="M601.41,68.2L396.54,2.57c-10.68-3.42-21.97-3.42-32.65,0l-204.87,65.64c-7.4,2.37-12.38,9.19-12.38,16.96v149.43c0,35.22,6.8,69.53,20.21,101.98,13.47,32.58,32.93,61.65,57.83,86.39,42.03,41.74,88.04,76.44,136.76,103.15,5.88,3.22,12.32,4.83,18.77,4.83s12.89-1.61,18.77-4.83c48.72-26.71,94.73-61.42,136.76-103.15,24.91-24.74,44.37-53.8,57.84-86.39,13.41-32.45,20.21-66.76,20.21-101.98V85.16c0-7.77-4.97-14.59-12.38-16.96ZM260.48,268.52h-9.12c-4.3,0-8.45.65-12.37,1.84-.32-26.28,1.52-46.81,5.43-59.92,5.84-19.59,14.29-27.9,20.65-31.42l-4.59,89.49ZM345.6,94.52c.52-10.13,8.91-18.22,19.17-18.22h30.89c10.26,0,18.65,8.09,19.17,18.22h-69.23ZM521.43,270.36c-3.92-1.19-8.07-1.84-12.37-1.84h-9.12l-4.59-89.49c6.36,3.52,14.81,11.83,20.65,31.42,3.91,13.11,5.75,33.64,5.43,59.92ZM587.79,234.59c0,45.01-12.87,89.18-36.24,126.9v-50.49c0-9.55-3.17-18.37-8.5-25.47,1.39-36.06-.61-63.44-5.96-81.37-10.85-36.4-30.97-46.27-42.95-48.83l-.12-2.28c-1.68-32.67-28.51-58.29-61.17-58.52-.53-20.07-17-36.23-37.2-36.23h-30.89c-20.19,0-36.67,16.17-37.2,36.23-32.66.23-59.49,25.84-61.17,58.52l-.12,2.28c-11.98,2.56-32.1,12.43-42.95,48.83-5.34,17.94-7.35,45.31-5.96,81.37-5.34,7.1-8.5,15.92-8.5,25.47v50.49c-23.37-37.73-36.24-81.9-36.24-126.9V91.14l199.18-63.81c5.49-1.76,11.3-1.76,16.79,0l199.18,63.81v143.45Z"/>
        <path class="cls-1" d="M432.42,112.52c23.27,0,42.44,18.21,43.63,41.45l1.27,24.8c-.08,26.1-21.34,47.3-47.46,47.3h-99.3c-26.12,0-47.37-21.21-47.46-47.3l1.27-24.8c1.19-23.24,20.36-41.45,43.63-41.45h104.41Z"/>
        <path class="cls-1" d="M304.21,238.52v32.96h28.56v-27.41h94.89v27.41h28.56v-32.96c9.01-3.98,16.95-9.92,23.28-17.3l4.95,96.49-.81-.81c-3.38-3.38-7.95-5.27-12.73-5.27s-9.35,1.9-12.73,5.27l-14.33,14.33c-1.7,1.7-2.97,3.65-3.85,5.73-2.12.9-4.08,2.19-5.74,3.86l-1.04,1.04c-5.93,5.93-9.51,13.66-10.09,21.76l-.33,4.56c-.61.47-1.2.97-1.76,1.53l-12.73,12.73h-62.09l-9.08-8.1c2.8-22.38-4.24-39.22-21.42-51.4-6.75-4.78-15.59-7.2-26.28-7.2-4.97,0-9.68.52-13.41,1.11l4.9-95.63c6.34,7.37,14.28,13.32,23.28,17.3Z"/>
        <path class="cls-7" d="M500.87,286.52h8.19c13.5,0,24.48,10.98,24.48,24.48v43.42l-7.24,6.87c-.87-1.96-2.09-3.81-3.7-5.42l-19.16-19.16-2.57-50.2Z"/>
        <path class="cls-1" d="M251.36,286.52h8.19l-2.04,39.71c-1.17,1.85-2.02,3.92-2.46,6.14-.78,3.97-.18,7.99,1.55,11.48l-.1,1.88,1.22.06c.13.2.25.41.4.61-2.23-.95-4.63-1.43-7.04-1.43-2.23,0-4.46.41-6.6,1.25-5.81,2.29-10.02,7.43-11.12,13.57-.35,1.96-.57,3.9-.69,5.84-1.97-2.23-4.21-4.9-5.8-6.82v-47.81c0-13.5,10.98-24.48,24.48-24.48Z"/>
        <path class="cls-3" d="M305.16,291.82h2.06v8.06c0,6.23,5.05,11.28,11.28,11.28s11.28-5.05,11.28-11.28v-8.06h2.06c5.06,0,9.17-4.1,9.17-9.17s-4.1-9.17-9.17-9.17h-26.67c-5.06,0-9.17,4.1-9.17,9.17s4.1,9.17,9.17,9.17Z"/>
        <path class="cls-3" d="M428.6,291.82h2.06v8.06c0,6.23,5.05,11.28,11.28,11.28s11.28-5.05,11.28-11.28v-8.06h2.06c5.06,0,9.17-4.1,9.17-9.17s-4.1-9.17-9.17-9.17h-26.67c-5.06,0-9.17,4.1-9.17,9.17s4.1,9.17,9.17,9.17Z"/>
        <g>
          <path class="cls-6" d="M251.09,362.97l23.72,17.76c2.54,1.9,6.14,1.43,8.1-1.07l14.12-17.94c2.02-2.57,1.54-6.31-1.07-8.28l-23.25-17.59s21.93-5.78,32.59,1.78c9.94,7.04,17.31,16.79,13.35,38.48-.57,3.11.5,6.31,2.86,8.41l46.91,41.85-17.93,17.33-44.13-42.96c-2.61-2.54-6.5-3.3-9.83-1.84-4.8,2.09-12.92,3.95-23.64.22-9.25-3.21-16.91-10.07-20.35-19.24-1.73-4.63-2.64-10.31-1.45-16.93Z"/>
          <path class="cls-6" d="M420.02,471.61l-3.3-2.9-19.39,19.02,4.34,4.08c5.3,4.99,13.6,4.88,18.78-.24l.17-.17c5.58-5.52,5.31-14.62-.59-19.79Z"/>
          <rect class="cls-6" x="473.08" y="328.74" width="20.27" height="55.1" transform="translate(-110.4 446.04) rotate(-45)"/>
          <path class="cls-6" d="M446.99,353.56l-1.04,1.04c-2.85,2.85-4.6,6.56-4.87,10.32l-.37,5.13c0,.05-.01.1-.02.16l28.61,28.61c.05,0,.1-.02.16-.02l5.13-.37c3.76-.27,7.47-2.02,10.32-4.87l1.04-1.04-38.96-38.96Z"/>
          <path class="cls-6" d="M346.76,469.51c-6.76,7.42-7.33,18.13-1.11,24.35h0c6.22,6.22,16.93,5.65,24.35-1.11l-23.24-23.24Z"/>
          <path class="cls-6" d="M433.76,382.45l-77.45,77.45,23.3,23.3,77.45-77.45-23.3-23.3ZM427.9,419.86l-7.66,7.66c-1.79,1.79-4.69,1.79-6.48,0l-1.48-1.48c-1.79-1.79-1.79-4.69,0-6.48l7.66-7.66c1.79-1.79,4.69-1.79,6.48,0l1.48,1.48c1.79,1.79,1.79,4.69,0,6.48Z"/>
        </g>
        <path class="cls-5" d="M412.29,160.27h-15.37c-2.72,0-4.93-2.21-4.93-4.93v-15.37c0-2.72-2.21-4.93-4.93-4.93h-13.7c-2.72,0-4.93,2.21-4.93,4.93v15.37c0,2.72-2.21,4.93-4.93,4.93h-15.37c-2.72,0-4.93,2.21-4.93,4.93v13.7c0,2.72,2.21,4.93,4.93,4.93h15.37c2.72,0,4.93,2.21,4.93,4.93v15.37c0,2.72,2.21,4.93,4.93,4.93h13.7c2.72,0,4.93-2.21,4.93-4.93v-15.37c0-2.72,2.21-4.93,4.93-4.93h15.37c2.72,0,4.93-2.21,4.93-4.93v-13.7c0-2.72-2.21-4.93-4.93-4.93Z"/>
        <g>
          <path class="cls-7" d="M304.21,242.98v-4.46c-4.96-2.19-9.58-5-13.81-8.29,0,.02.02.03.02.04,2.7,5.03,7.49,9.22,13.79,12.71Z"/>
          <path class="cls-7" d="M429.86,226.08c26.12,0,47.37-21.21,47.46-47.3l-1.27-24.8c-.63-12.24-6.24-23.08-14.81-30.6,3.39,19.68,4.31,45.99-7.61,67.67-9.69,17.61-20.77,28.43-30.17,35.04h6.41Z"/>
          <path class="cls-7" d="M479.49,221.23c-6.34,7.37-14.28,13.32-23.28,17.3v17.66c10.95-2.22,18.91-6.51,24.52-10.84l-1.24-24.12Z"/>
          <path class="cls-7" d="M427.66,258.62v-14.54h-94.89v8.7c29.93,6.44,68.5,6.87,94.89,5.84Z"/>
        </g>
        <path class="cls-7" d="M337.73,365.64c-.02,2.81-.21,5.71-.59,8.71l9.08,8.1h62.09l12.73-12.73c.56-.56,1.15-1.06,1.76-1.53l.18-2.56h-85.25Z"/>
        <g>
          <path class="cls-2" d="M457.06,405.75l-4.91-4.91c-15.05,15.3-60.58,61.59-76.7,78.2l4.15,4.15,77.45-77.45Z"/>
          <path class="cls-2" d="M370,492.75l-4.31-4.31c-4.91,3.57-11.53,7.09-14.81,8.76,6.01,2.23,13.5.67,19.12-4.45Z"/>
          <path class="cls-2" d="M484.91,393.56l1.04-1.04-5.72-5.72-16.49,6.45,5.57,5.57c.05,0,.1-.02.16-.02l5.13-.37c3.76-.27,7.47-2.02,10.32-4.87Z"/>
          <polygon class="cls-2" points="495.53 382.94 509.87 368.6 504.96 363.7 490.69 378.1 495.53 382.94"/>
        </g>
        <path class="cls-4" d="M319.03,261.86h6.78v-18.14c-5.73-.58-10.83-1.75-14.63-2.84v13.13c0,4.34,3.52,7.85,7.85,7.85Z"/>
        <path class="cls-4" d="M441.4,261.86h-6.78v-18.14c5.73-.58,10.83-1.75,14.63-2.84v13.13c0,4.34-3.52,7.85-7.85,7.85Z"/>
      </g>
    </g>
  </g>
</svg>